<mxfile host="65bd71144e">
    <diagram id="YjC-V1jiLNOm3QlCypXk" name="Page-1">
        <mxGraphModel dx="831" dy="501" grid="1" gridSize="10" guides="1" tooltips="1" connect="1" arrows="1" fold="1" page="1" pageScale="1" pageWidth="850" pageHeight="1100" math="0" shadow="0">
            <root>
                <mxCell id="0"/>
                <mxCell id="1" parent="0"/>
                <mxCell id="2" value="" style="strokeWidth=5;shadow=0;dashed=0;align=center;html=1;shape=mxgraph.mockup.containers.browserWindow;rSize=0;strokeColor=#FE16D0;strokeColor2=#008cff;strokeColor3=#c4c4c4;mainText=,;recursiveResize=0;fillColor=#121212;" parent="1" vertex="1">
                    <mxGeometry x="10" y="10" width="820" height="840" as="geometry"/>
                </mxCell>
                <mxCell id="3" value="About" style="strokeWidth=1;shadow=0;dashed=0;align=center;html=1;shape=mxgraph.mockup.containers.anchor;fontSize=17;fontColor=#666666;align=left;" parent="2" vertex="1">
                    <mxGeometry x="60" y="12" width="110" height="26" as="geometry"/>
                </mxCell>
                <mxCell id="4" value="https://www.draw.io" style="strokeWidth=1;shadow=0;dashed=0;align=center;html=1;shape=mxgraph.mockup.containers.anchor;rSize=0;fontSize=17;fontColor=#666666;align=left;" parent="2" vertex="1">
                    <mxGeometry x="130" y="60" width="250" height="26" as="geometry"/>
                </mxCell>
                <mxCell id="6" value="" style="strokeColor=#FFFFFF;verticalLabelPosition=bottom;shadow=0;dashed=0;verticalAlign=top;strokeWidth=2;html=1;shape=mxgraph.mockup.misc.copyrightIcon;labelBorderColor=none;fontColor=#333333;fillColor=#121212;" parent="2" vertex="1">
                    <mxGeometry x="60" y="800" width="25" height="25" as="geometry"/>
                </mxCell>
                <mxCell id="24" value="&lt;font style=&quot;color: rgb(254, 22, 208);&quot; data-font-src=&quot;https://fonts.googleapis.com/css?family=Poppins&quot; face=&quot;Poppins&quot;&gt;Resume&lt;/font&gt;" style="strokeWidth=5;shadow=0;dashed=0;align=center;html=1;shape=mxgraph.mockup.buttons.button;strokeColor=#FE16D0;fontColor=#ffffff;mainText=;buttonStyle=round;fontSize=17;fontStyle=1;fillColor=#121212;whiteSpace=wrap;labelBorderColor=none;" parent="2" vertex="1">
                    <mxGeometry x="335" y="760" width="150" height="50" as="geometry"/>
                </mxCell>
                <mxCell id="35" value="" style="edgeStyle=none;html=1;" parent="2" source="22" target="24" edge="1">
                    <mxGeometry relative="1" as="geometry"/>
                </mxCell>
                <mxCell id="22" value="" style="rounded=0;whiteSpace=wrap;html=1;fillColor=#121212;strokeColor=#FE16D0;strokeWidth=5;" parent="2" vertex="1">
                    <mxGeometry x="150" y="220" width="530" height="520" as="geometry"/>
                </mxCell>
                <mxCell id="19" value="&lt;h1 style=&quot;text-align: center; margin-top: 0px;&quot;&gt;&lt;font face=&quot;Oswald&quot; style=&quot;color: rgb(255, 255, 255);&quot; data-font-src=&quot;https://fonts.googleapis.com/css?family=Oswald&quot;&gt;Tools/Skills&lt;/font&gt;&lt;/h1&gt;&lt;p&gt;&lt;font style=&quot;color: rgb(255, 255, 255);&quot;&gt;Lorem ipsum dolor sit amet, consectetur adipisicing elit, sed do eiusmod tempor incididunt ut labore et dolore magna aliqua.&lt;/font&gt;&lt;/p&gt;" style="text;html=1;whiteSpace=wrap;overflow=hidden;rounded=0;fontColor=#FFFFFF;fontFamily=Inter;fontSource=https%3A%2F%2Ffonts.googleapis.com%2Fcss%3Ffamily%3DInter;" parent="2" vertex="1">
                    <mxGeometry x="180" y="610" width="470" height="100" as="geometry"/>
                </mxCell>
                <mxCell id="18" value="&lt;h1 style=&quot;text-align: center; margin-top: 0px;&quot;&gt;&lt;font face=&quot;Oswald&quot; data-font-src=&quot;https://fonts.googleapis.com/css?family=Inter&quot; style=&quot;color: rgb(255, 255, 255);&quot;&gt;Certifications&lt;/font&gt;&lt;/h1&gt;&lt;p&gt;&lt;span&gt;&lt;font style=&quot;color: rgb(255, 255, 255);&quot; data-font-src=&quot;https://fonts.googleapis.com/css?family=Inter&quot; face=&quot;Inter&quot;&gt;Lorem ipsum dolor sit amet, consectetur adipisicing elit, sed do eiusmod tempor incididunt ut labore et dolore magna aliqua.&lt;/font&gt;&lt;/span&gt;&lt;br&gt;&lt;/p&gt;" style="text;html=1;whiteSpace=wrap;overflow=hidden;rounded=0;fontColor=#FFFFFF;" parent="2" vertex="1">
                    <mxGeometry x="183" y="505" width="465" height="110" as="geometry"/>
                </mxCell>
                <mxCell id="17" value="&lt;h1 style=&quot;text-align: center; margin-top: 0px;&quot;&gt;&lt;font face=&quot;Oswald&quot; data-font-src=&quot;https://fonts.googleapis.com/css?family=Oswald&quot; style=&quot;color: rgb(255, 255, 255);&quot;&gt;Work Experience&lt;/font&gt;&lt;/h1&gt;&lt;p&gt;&lt;span&gt;&lt;font style=&quot;color: rgb(255, 255, 255);&quot; face=&quot;Inter&quot;&gt;Lorem ipsum dolor sit amet, consectetur adipisicing elit, sed do eiusmod tempor incididunt ut labore et dolore magna aliqua.&lt;/font&gt;&lt;/span&gt;&lt;br&gt;&lt;/p&gt;" style="text;html=1;whiteSpace=wrap;overflow=hidden;rounded=0;fontColor=#FFFFFF;" parent="2" vertex="1">
                    <mxGeometry x="185" y="410" width="460" height="95" as="geometry"/>
                </mxCell>
                <mxCell id="16" value="&lt;h1 style=&quot;text-align: center; margin-top: 0px;&quot;&gt;&lt;font face=&quot;Oswald&quot; data-font-src=&quot;https://fonts.googleapis.com/css?family=Oswald&quot; style=&quot;color: rgb(255, 255, 255);&quot;&gt;About Me&lt;/font&gt;&lt;/h1&gt;&lt;p&gt;&lt;font data-font-src=&quot;https://fonts.googleapis.com/css?family=Inter&quot; face=&quot;Inter&quot; style=&quot;color: rgb(255, 255, 255);&quot;&gt;&lt;span style=&quot;color: rgb(255, 255, 255); background-color: transparent;&quot;&gt;Lorem ipsum dolor sit amet, consectetur adipisicing elit, sed do eiusmod tempor incididunt ut labore et dolore magna aliqua.&lt;/span&gt;.&lt;/font&gt;&lt;/p&gt;" style="text;html=1;whiteSpace=wrap;overflow=hidden;rounded=0;fontColor=#FFFFFF;" parent="2" vertex="1">
                    <mxGeometry x="195" y="310" width="440" height="110" as="geometry"/>
                </mxCell>
                <mxCell id="23" value="" style="verticalLabelPosition=bottom;shadow=0;dashed=0;align=center;html=1;verticalAlign=top;strokeWidth=1;shape=mxgraph.mockup.containers.userMale;strokeColor=#39FF14;strokeColor2=#008cff;" parent="2" vertex="1">
                    <mxGeometry x="380.5" y="240" width="70" height="60" as="geometry"/>
                </mxCell>
                <mxCell id="42" value="" style="strokeWidth=9;shadow=0;dashed=0;align=center;html=1;shape=mxgraph.mockup.rrect;rSize=10;fillColor=#F5F5DC;strokeColor=#121212;labelBackgroundColor=#A2FE32;fontFamily=Oswald;fontSource=https%3A%2F%2Ffonts.googleapis.com%2Fcss%3Ffamily%3DOswald;" vertex="1" parent="2">
                    <mxGeometry x="567.5" y="135" width="45" height="30" as="geometry"/>
                </mxCell>
                <mxCell id="43" value="&lt;font style=&quot;color: rgb(254, 22, 208);&quot; face=&quot;Poppins&quot;&gt;GitHub&lt;/font&gt;" style="strokeWidth=2;shadow=0;dashed=0;align=center;html=1;shape=mxgraph.mockup.leftButton;rSize=10;fontSize=17;fontColor=#F5F5DC;fontStyle=1;fillColor=#121212;strokeColor=#FE16D0;resizeHeight=1;fontFamily=Oswald;fontSource=https%3A%2F%2Ffonts.googleapis.com%2Fcss%3Ffamily%3DOswald;" vertex="1" parent="42">
                    <mxGeometry width="95" height="30" relative="1" as="geometry"/>
                </mxCell>
                <mxCell id="44" value="" style="strokeWidth=9;shadow=0;dashed=0;align=center;html=1;shape=mxgraph.mockup.rrect;rSize=10;fillColor=#F5F5DC;strokeColor=#121212;labelBackgroundColor=#A2FE32;fontFamily=Oswald;fontSource=https%3A%2F%2Ffonts.googleapis.com%2Fcss%3Ffamily%3DOswald;" vertex="1" parent="2">
                    <mxGeometry x="667.5" y="135" width="50" height="30" as="geometry"/>
                </mxCell>
                <mxCell id="45" value="&lt;font style=&quot;color: rgb(18, 18, 18);&quot; face=&quot;Poppins&quot;&gt;LinkedIn&lt;/font&gt;" style="strokeWidth=2;shadow=0;dashed=0;align=center;html=1;shape=mxgraph.mockup.leftButton;rSize=10;fontSize=17;fontColor=#F5F5DC;fontStyle=1;fillColor=#A2FE32;strokeColor=#FFFFFF;resizeHeight=1;fontFamily=Oswald;fontSource=https%3A%2F%2Ffonts.googleapis.com%2Fcss%3Ffamily%3DOswald;" vertex="1" parent="44">
                    <mxGeometry width="95" height="30" relative="1" as="geometry"/>
                </mxCell>
                <mxCell id="46" value="&lt;font data-font-src=&quot;https://fonts.googleapis.com/css?family=Poppins&quot; face=&quot;Poppins&quot; style=&quot;color: rgb(255, 255, 255);&quot;&gt;About&lt;/font&gt;" style="strokeWidth=9;shadow=0;dashed=0;align=center;html=1;shape=mxgraph.mockup.buttons.button;strokeColor=#121212;fontColor=#ffffff;mainText=;buttonStyle=round;fontSize=17;fontStyle=1;fillColor=#121212;whiteSpace=wrap;fontFamily=Oswald;fontSource=https%3A%2F%2Ffonts.googleapis.com%2Fcss%3Ffamily%3DOswald;" vertex="1" parent="2">
                    <mxGeometry x="47.5" y="130" width="120" height="40" as="geometry"/>
                </mxCell>
                <mxCell id="47" value="&lt;font face=&quot;Poppins&quot; style=&quot;color: rgb(255, 255, 255);&quot;&gt;Gallery&lt;/font&gt;" style="text;html=1;align=center;verticalAlign=middle;whiteSpace=wrap;rounded=0;" vertex="1" parent="2">
                    <mxGeometry x="157.5" y="135" width="60" height="30" as="geometry"/>
                </mxCell>
                <mxCell id="48" value="&lt;font face=&quot;Poppins&quot; style=&quot;color: rgb(255, 255, 255);&quot;&gt;Contact&lt;/font&gt;" style="text;html=1;align=center;verticalAlign=middle;whiteSpace=wrap;rounded=0;" vertex="1" parent="2">
                    <mxGeometry x="225" y="135" width="60" height="30" as="geometry"/>
                </mxCell>
                <mxCell id="50" value="" style="edgeStyle=none;html=1;" edge="1" parent="2" source="49" target="48">
                    <mxGeometry relative="1" as="geometry"/>
                </mxCell>
                <mxCell id="49" value="" style="line;strokeWidth=2;html=1;fontColor=#FE16D0;strokeColor=#FE16D0;" vertex="1" parent="2">
                    <mxGeometry x="77.5" y="150" width="60" height="30" as="geometry"/>
                </mxCell>
            </root>
        </mxGraphModel>
    </diagram>
</mxfile>